<svg xmlns="http://www.w3.org/2000/svg" viewBox="0 0 200 400" fill="none">
  <!-- Fondo -->
  <rect width="200" height="400" fill="#f5f5f7" rx="30"/>
  
  <!-- Pantalla -->
  <rect x="10" y="15" width="180" height="370" fill="#1d1d1f" rx="25"/>
  
  <!-- Notch -->
  <rect x="70" y="15" width="60" height="25" fill="#f5f5f7" rx="12"/>
  
  <!-- Logo Apple -->
  <g transform="translate(85, 180)">
    <path d="M20.5 0C17 0 15 2 12.5 2S8 0 4.5 0C-2 0 -8 6 -8 15c0 9 6 20 10 20 2.5 0 3.5-1.5 6-1.5s3.5 1.5 6 1.5c4 0 10-10 10-20 0-9-6-15-12.5-15zM15 -5c-1.5-3-4-5-7-5-0.5 0-0.5 0.5 0 0.5 3 0.5 5.5 2.5 6.5 5 0.5 0.5 0.5 0 0.5-0.5z" fill="#8e8e93" opacity="0.6"/>
  </g>
  
  <!-- Texto -->
  <text x="100" y="250" text-anchor="middle" font-family="-apple-system, BlinkMacSystemFont, 'SF Pro Display', sans-serif" font-size="16" fill="#8e8e93" opacity="0.8">iPhone</text>
  
  <!-- Botones laterales -->
  <rect x="0" y="80" width="4" height="30" fill="#8e8e93" opacity="0.3"/>
  <rect x="0" y="120" width="4" height="30" fill="#8e8e93" opacity="0.3"/>
  <rect x="196" y="100" width="4" height="60" fill="#8e8e93" opacity="0.3"/>
</svg>

